<mxfile host="Electron" modified="2023-08-20T13:57:12.936Z" agent="Mozilla/5.0 (Windows NT 10.0; Win64; x64) AppleWebKit/537.36 (KHTML, like Gecko) draw.io/21.6.8 Chrome/114.0.5735.289 Electron/25.5.0 Safari/537.36" etag="I_n5cnwnHNwce-z7DkxP" version="21.6.8" type="device">
  <diagram name="Page-1" id="6133507b-19e7-1e82-6fc7-422aa6c4b21f">
    <mxGraphModel dx="1155" dy="582" grid="1" gridSize="10" guides="1" tooltips="1" connect="1" arrows="1" fold="1" page="1" pageScale="1" pageWidth="1100" pageHeight="850" background="none" math="0" shadow="0">
      <root>
        <mxCell id="0" />
        <mxCell id="1" parent="0" />
        <mxCell id="9_RSqaM09te3557k8NnD-1" value="&lt;i&gt;Abstract Class&lt;br&gt;Client&lt;br&gt;&lt;/i&gt;" style="swimlane;fontStyle=0;childLayout=stackLayout;horizontal=1;startSize=26;fillColor=#99CCFF;horizontalStack=0;resizeParent=1;resizeParentMax=0;resizeLast=0;collapsible=1;marginBottom=0;whiteSpace=wrap;html=1;movable=1;resizable=1;rotatable=1;deletable=1;editable=1;locked=0;connectable=1;" parent="1" vertex="1">
          <mxGeometry x="120" y="60" width="140" height="104" as="geometry" />
        </mxCell>
        <mxCell id="9_RSqaM09te3557k8NnD-2" value="Id: int&amp;nbsp;" style="text;strokeColor=none;fillColor=none;align=left;verticalAlign=top;spacingLeft=4;spacingRight=4;overflow=hidden;rotatable=0;points=[[0,0.5],[1,0.5]];portConstraint=eastwest;whiteSpace=wrap;html=1;" parent="9_RSqaM09te3557k8NnD-1" vertex="1">
          <mxGeometry y="26" width="140" height="26" as="geometry" />
        </mxCell>
        <mxCell id="9_RSqaM09te3557k8NnD-3" value="name" style="text;strokeColor=none;fillColor=none;align=left;verticalAlign=top;spacingLeft=4;spacingRight=4;overflow=hidden;rotatable=0;points=[[0,0.5],[1,0.5]];portConstraint=eastwest;whiteSpace=wrap;html=1;" parent="9_RSqaM09te3557k8NnD-1" vertex="1">
          <mxGeometry y="52" width="140" height="26" as="geometry" />
        </mxCell>
        <mxCell id="9_RSqaM09te3557k8NnD-4" value="phone" style="text;strokeColor=none;fillColor=none;align=left;verticalAlign=top;spacingLeft=4;spacingRight=4;overflow=hidden;rotatable=0;points=[[0,0.5],[1,0.5]];portConstraint=eastwest;whiteSpace=wrap;html=1;" parent="9_RSqaM09te3557k8NnD-1" vertex="1">
          <mxGeometry y="78" width="140" height="26" as="geometry" />
        </mxCell>
        <mxCell id="9_RSqaM09te3557k8NnD-6" value="&lt;i&gt;Abstract Class&lt;br&gt;Goods&lt;br&gt;&lt;/i&gt;" style="swimlane;fontStyle=0;childLayout=stackLayout;horizontal=1;startSize=26;fillColor=#99CCFF;horizontalStack=0;resizeParent=1;resizeParentMax=0;resizeLast=0;collapsible=1;marginBottom=0;whiteSpace=wrap;html=1;movable=1;resizable=1;rotatable=1;deletable=1;editable=1;locked=0;connectable=1;" parent="1" vertex="1">
          <mxGeometry x="510" y="60" width="140" height="104" as="geometry" />
        </mxCell>
        <mxCell id="9_RSqaM09te3557k8NnD-7" value="Id: int&amp;nbsp;" style="text;strokeColor=none;fillColor=none;align=left;verticalAlign=top;spacingLeft=4;spacingRight=4;overflow=hidden;rotatable=0;points=[[0,0.5],[1,0.5]];portConstraint=eastwest;whiteSpace=wrap;html=1;" parent="9_RSqaM09te3557k8NnD-6" vertex="1">
          <mxGeometry y="26" width="140" height="26" as="geometry" />
        </mxCell>
        <mxCell id="9_RSqaM09te3557k8NnD-8" value="name" style="text;strokeColor=none;fillColor=none;align=left;verticalAlign=top;spacingLeft=4;spacingRight=4;overflow=hidden;rotatable=0;points=[[0,0.5],[1,0.5]];portConstraint=eastwest;whiteSpace=wrap;html=1;" parent="9_RSqaM09te3557k8NnD-6" vertex="1">
          <mxGeometry y="52" width="140" height="26" as="geometry" />
        </mxCell>
        <mxCell id="9_RSqaM09te3557k8NnD-9" value="price" style="text;strokeColor=none;fillColor=none;align=left;verticalAlign=top;spacingLeft=4;spacingRight=4;overflow=hidden;rotatable=0;points=[[0,0.5],[1,0.5]];portConstraint=eastwest;whiteSpace=wrap;html=1;" parent="9_RSqaM09te3557k8NnD-6" vertex="1">
          <mxGeometry y="78" width="140" height="26" as="geometry" />
        </mxCell>
        <mxCell id="9_RSqaM09te3557k8NnD-12" value="FastClient" style="swimlane;fontStyle=0;childLayout=stackLayout;horizontal=1;startSize=26;fillColor=#99CCFF;horizontalStack=0;resizeParent=1;resizeParentMax=0;resizeLast=0;collapsible=1;marginBottom=0;whiteSpace=wrap;html=1;" parent="1" vertex="1">
          <mxGeometry x="20" y="240" width="140" height="104" as="geometry" />
        </mxCell>
        <mxCell id="9_RSqaM09te3557k8NnD-13" value="Id:int" style="text;strokeColor=none;fillColor=none;align=left;verticalAlign=top;spacingLeft=4;spacingRight=4;overflow=hidden;rotatable=0;points=[[0,0.5],[1,0.5]];portConstraint=eastwest;whiteSpace=wrap;html=1;" parent="9_RSqaM09te3557k8NnD-12" vertex="1">
          <mxGeometry y="26" width="140" height="26" as="geometry" />
        </mxCell>
        <mxCell id="9_RSqaM09te3557k8NnD-14" value="deliveryAdress" style="text;strokeColor=none;fillColor=none;align=left;verticalAlign=top;spacingLeft=4;spacingRight=4;overflow=hidden;rotatable=0;points=[[0,0.5],[1,0.5]];portConstraint=eastwest;whiteSpace=wrap;html=1;" parent="9_RSqaM09te3557k8NnD-12" vertex="1">
          <mxGeometry y="52" width="140" height="26" as="geometry" />
        </mxCell>
        <mxCell id="YtY4lrtHLSIbA0cFB0pE-23" value="&amp;nbsp;" style="text;strokeColor=none;fillColor=none;align=left;verticalAlign=top;spacingLeft=4;spacingRight=4;overflow=hidden;rotatable=0;points=[[0,0.5],[1,0.5]];portConstraint=eastwest;whiteSpace=wrap;html=1;" parent="9_RSqaM09te3557k8NnD-12" vertex="1">
          <mxGeometry y="78" width="140" height="26" as="geometry" />
        </mxCell>
        <mxCell id="9_RSqaM09te3557k8NnD-20" value="Pizza" style="swimlane;fontStyle=0;childLayout=stackLayout;horizontal=1;startSize=26;fillColor=#99CCFF;horizontalStack=0;resizeParent=1;resizeParentMax=0;resizeLast=0;collapsible=1;marginBottom=0;whiteSpace=wrap;html=1;" parent="1" vertex="1">
          <mxGeometry x="610" y="240" width="140" height="104" as="geometry" />
        </mxCell>
        <mxCell id="9_RSqaM09te3557k8NnD-21" value="Id:int" style="text;strokeColor=none;fillColor=none;align=left;verticalAlign=top;spacingLeft=4;spacingRight=4;overflow=hidden;rotatable=0;points=[[0,0.5],[1,0.5]];portConstraint=eastwest;whiteSpace=wrap;html=1;" parent="9_RSqaM09te3557k8NnD-20" vertex="1">
          <mxGeometry y="26" width="140" height="26" as="geometry" />
        </mxCell>
        <mxCell id="9_RSqaM09te3557k8NnD-22" value="name" style="text;strokeColor=none;fillColor=none;align=left;verticalAlign=top;spacingLeft=4;spacingRight=4;overflow=hidden;rotatable=0;points=[[0,0.5],[1,0.5]];portConstraint=eastwest;whiteSpace=wrap;html=1;" parent="9_RSqaM09te3557k8NnD-20" vertex="1">
          <mxGeometry y="52" width="140" height="26" as="geometry" />
        </mxCell>
        <mxCell id="9_RSqaM09te3557k8NnD-23" value="pizzaList" style="text;strokeColor=none;fillColor=none;align=left;verticalAlign=top;spacingLeft=4;spacingRight=4;overflow=hidden;rotatable=0;points=[[0,0.5],[1,0.5]];portConstraint=eastwest;whiteSpace=wrap;html=1;" parent="9_RSqaM09te3557k8NnD-20" vertex="1">
          <mxGeometry y="78" width="140" height="26" as="geometry" />
        </mxCell>
        <mxCell id="9_RSqaM09te3557k8NnD-24" value="Delivery" style="swimlane;fontStyle=0;childLayout=stackLayout;horizontal=1;startSize=26;fillColor=#99CCFF;horizontalStack=0;resizeParent=1;resizeParentMax=0;resizeLast=0;collapsible=1;marginBottom=0;whiteSpace=wrap;html=1;" parent="1" vertex="1">
          <mxGeometry x="410" y="240" width="140" height="104" as="geometry" />
        </mxCell>
        <mxCell id="9_RSqaM09te3557k8NnD-25" value="Id:int" style="text;strokeColor=none;fillColor=none;align=left;verticalAlign=top;spacingLeft=4;spacingRight=4;overflow=hidden;rotatable=0;points=[[0,0.5],[1,0.5]];portConstraint=eastwest;whiteSpace=wrap;html=1;" parent="9_RSqaM09te3557k8NnD-24" vertex="1">
          <mxGeometry y="26" width="140" height="26" as="geometry" />
        </mxCell>
        <mxCell id="9_RSqaM09te3557k8NnD-26" value="deliveryAdress" style="text;strokeColor=none;fillColor=none;align=left;verticalAlign=top;spacingLeft=4;spacingRight=4;overflow=hidden;rotatable=0;points=[[0,0.5],[1,0.5]];portConstraint=eastwest;whiteSpace=wrap;html=1;" parent="9_RSqaM09te3557k8NnD-24" vertex="1">
          <mxGeometry y="52" width="140" height="26" as="geometry" />
        </mxCell>
        <mxCell id="9_RSqaM09te3557k8NnD-27" value="deliveyList" style="text;strokeColor=none;fillColor=none;align=left;verticalAlign=top;spacingLeft=4;spacingRight=4;overflow=hidden;rotatable=0;points=[[0,0.5],[1,0.5]];portConstraint=eastwest;whiteSpace=wrap;html=1;" parent="9_RSqaM09te3557k8NnD-24" vertex="1">
          <mxGeometry y="78" width="140" height="26" as="geometry" />
        </mxCell>
        <mxCell id="9_RSqaM09te3557k8NnD-28" value="&amp;nbsp;package_domain" style="text;html=1;strokeColor=none;fillColor=none;align=center;verticalAlign=middle;whiteSpace=wrap;rounded=0;" parent="1" vertex="1">
          <mxGeometry y="10" width="100" height="30" as="geometry" />
        </mxCell>
        <mxCell id="9_RSqaM09te3557k8NnD-29" value="&amp;nbsp;package_data" style="text;html=1;strokeColor=none;fillColor=none;align=center;verticalAlign=middle;whiteSpace=wrap;rounded=0;" parent="1" vertex="1">
          <mxGeometry y="190" width="100" height="30" as="geometry" />
        </mxCell>
        <mxCell id="9_RSqaM09te3557k8NnD-30" value="«interface»&lt;br&gt;&lt;b&gt;ActiveCilent&lt;/b&gt;" style="html=1;whiteSpace=wrap;" parent="1" vertex="1">
          <mxGeometry x="50" y="394" width="110" height="76" as="geometry" />
        </mxCell>
        <mxCell id="9_RSqaM09te3557k8NnD-31" value="«interface»&lt;br&gt;&lt;b&gt;ActiveDelivery&lt;/b&gt;" style="html=1;whiteSpace=wrap;" parent="1" vertex="1">
          <mxGeometry x="410" y="394" width="110" height="76" as="geometry" />
        </mxCell>
        <mxCell id="9_RSqaM09te3557k8NnD-32" value="«interface»&lt;br&gt;&lt;b&gt;ActiveMenu&lt;/b&gt;" style="html=1;whiteSpace=wrap;" parent="1" vertex="1">
          <mxGeometry x="640" y="394" width="110" height="76" as="geometry" />
        </mxCell>
        <mxCell id="9_RSqaM09te3557k8NnD-33" value="&amp;nbsp;package_presentation" style="text;html=1;strokeColor=none;fillColor=none;align=center;verticalAlign=middle;whiteSpace=wrap;rounded=0;" parent="1" vertex="1">
          <mxGeometry x="10" y="510" width="120" height="30" as="geometry" />
        </mxCell>
        <mxCell id="9_RSqaM09te3557k8NnD-34" value="Order" style="swimlane;fontStyle=0;childLayout=stackLayout;horizontal=1;startSize=26;fillColor=#99CCFF;horizontalStack=0;resizeParent=1;resizeParentMax=0;resizeLast=0;collapsible=1;marginBottom=0;whiteSpace=wrap;html=1;" parent="1" vertex="1">
          <mxGeometry x="310" y="560" width="140" height="156" as="geometry" />
        </mxCell>
        <mxCell id="9_RSqaM09te3557k8NnD-35" value="Id:int" style="text;strokeColor=none;fillColor=none;align=left;verticalAlign=top;spacingLeft=4;spacingRight=4;overflow=hidden;rotatable=0;points=[[0,0.5],[1,0.5]];portConstraint=eastwest;whiteSpace=wrap;html=1;" parent="9_RSqaM09te3557k8NnD-34" vertex="1">
          <mxGeometry y="26" width="140" height="26" as="geometry" />
        </mxCell>
        <mxCell id="9_RSqaM09te3557k8NnD-36" value="datastemp" style="text;strokeColor=none;fillColor=none;align=left;verticalAlign=top;spacingLeft=4;spacingRight=4;overflow=hidden;rotatable=0;points=[[0,0.5],[1,0.5]];portConstraint=eastwest;whiteSpace=wrap;html=1;" parent="9_RSqaM09te3557k8NnD-34" vertex="1">
          <mxGeometry y="52" width="140" height="26" as="geometry" />
        </mxCell>
        <mxCell id="9_RSqaM09te3557k8NnD-38" value="nameClient" style="text;strokeColor=none;fillColor=none;align=left;verticalAlign=top;spacingLeft=4;spacingRight=4;overflow=hidden;rotatable=0;points=[[0,0.5],[1,0.5]];portConstraint=eastwest;whiteSpace=wrap;html=1;" parent="9_RSqaM09te3557k8NnD-34" vertex="1">
          <mxGeometry y="78" width="140" height="26" as="geometry" />
        </mxCell>
        <mxCell id="9_RSqaM09te3557k8NnD-39" value="goodsList" style="text;strokeColor=none;fillColor=none;align=left;verticalAlign=top;spacingLeft=4;spacingRight=4;overflow=hidden;rotatable=0;points=[[0,0.5],[1,0.5]];portConstraint=eastwest;whiteSpace=wrap;html=1;" parent="9_RSqaM09te3557k8NnD-34" vertex="1">
          <mxGeometry y="104" width="140" height="26" as="geometry" />
        </mxCell>
        <mxCell id="9_RSqaM09te3557k8NnD-37" value="invoice" style="text;strokeColor=none;fillColor=none;align=left;verticalAlign=top;spacingLeft=4;spacingRight=4;overflow=hidden;rotatable=0;points=[[0,0.5],[1,0.5]];portConstraint=eastwest;whiteSpace=wrap;html=1;" parent="9_RSqaM09te3557k8NnD-34" vertex="1">
          <mxGeometry y="130" width="140" height="26" as="geometry" />
        </mxCell>
        <mxCell id="9_RSqaM09te3557k8NnD-40" value="«interface»&lt;br&gt;&lt;b&gt;CurrentCilent&lt;/b&gt;" style="html=1;whiteSpace=wrap;" parent="1" vertex="1">
          <mxGeometry x="250" y="394" width="110" height="76" as="geometry" />
        </mxCell>
        <mxCell id="9_RSqaM09te3557k8NnD-41" value="«interface»&lt;br&gt;&lt;b&gt;Promotion&lt;/b&gt;" style="html=1;whiteSpace=wrap;" parent="1" vertex="1">
          <mxGeometry x="640" y="637" width="110" height="80" as="geometry" />
        </mxCell>
        <mxCell id="9_RSqaM09te3557k8NnD-42" value="Main" style="swimlane;fontStyle=0;childLayout=stackLayout;horizontal=1;startSize=26;fillColor=#99CCFF;horizontalStack=0;resizeParent=1;resizeParentMax=0;resizeLast=0;collapsible=1;marginBottom=0;whiteSpace=wrap;html=1;" parent="1" vertex="1">
          <mxGeometry x="35" y="639" width="140" height="78" as="geometry" />
        </mxCell>
        <mxCell id="9_RSqaM09te3557k8NnD-43" value="&amp;nbsp;" style="text;strokeColor=none;fillColor=none;align=left;verticalAlign=top;spacingLeft=4;spacingRight=4;overflow=hidden;rotatable=0;points=[[0,0.5],[1,0.5]];portConstraint=eastwest;whiteSpace=wrap;html=1;" parent="9_RSqaM09te3557k8NnD-42" vertex="1">
          <mxGeometry y="26" width="140" height="26" as="geometry" />
        </mxCell>
        <mxCell id="9_RSqaM09te3557k8NnD-44" value="&amp;nbsp;" style="text;strokeColor=none;fillColor=none;align=left;verticalAlign=top;spacingLeft=4;spacingRight=4;overflow=hidden;rotatable=0;points=[[0,0.5],[1,0.5]];portConstraint=eastwest;whiteSpace=wrap;html=1;" parent="9_RSqaM09te3557k8NnD-42" vertex="1">
          <mxGeometry y="52" width="140" height="26" as="geometry" />
        </mxCell>
        <mxCell id="YtY4lrtHLSIbA0cFB0pE-24" value="Extends" style="endArrow=block;endSize=16;endFill=0;html=1;rounded=0;exitX=0.5;exitY=0;exitDx=0;exitDy=0;" parent="1" source="9_RSqaM09te3557k8NnD-12" edge="1">
          <mxGeometry width="160" relative="1" as="geometry">
            <mxPoint x="-20" y="130" as="sourcePoint" />
            <mxPoint x="120" y="120" as="targetPoint" />
            <Array as="points">
              <mxPoint x="90" y="120" />
            </Array>
          </mxGeometry>
        </mxCell>
        <mxCell id="YtY4lrtHLSIbA0cFB0pE-25" value="Extends" style="endArrow=block;endSize=16;endFill=0;html=1;rounded=0;exitX=0.5;exitY=0;exitDx=0;exitDy=0;" parent="1" edge="1">
          <mxGeometry width="160" relative="1" as="geometry">
            <mxPoint x="480" y="240" as="sourcePoint" />
            <mxPoint x="510" y="120" as="targetPoint" />
            <Array as="points">
              <mxPoint x="480" y="120" />
            </Array>
          </mxGeometry>
        </mxCell>
        <mxCell id="YtY4lrtHLSIbA0cFB0pE-26" value="Extends" style="endArrow=block;endSize=16;endFill=0;html=1;rounded=0;exitX=0.5;exitY=0;exitDx=0;exitDy=0;" parent="1" edge="1">
          <mxGeometry width="160" relative="1" as="geometry">
            <mxPoint x="290" y="238" as="sourcePoint" />
            <mxPoint x="260" y="120" as="targetPoint" />
            <Array as="points">
              <mxPoint x="290" y="118" />
            </Array>
          </mxGeometry>
        </mxCell>
        <mxCell id="YtY4lrtHLSIbA0cFB0pE-27" value="Extends" style="endArrow=block;endSize=16;endFill=0;html=1;rounded=0;exitX=0.5;exitY=0;exitDx=0;exitDy=0;" parent="1" edge="1">
          <mxGeometry width="160" relative="1" as="geometry">
            <mxPoint x="680" y="238" as="sourcePoint" />
            <mxPoint x="650" y="120" as="targetPoint" />
            <Array as="points">
              <mxPoint x="680" y="118" />
            </Array>
          </mxGeometry>
        </mxCell>
        <mxCell id="YtY4lrtHLSIbA0cFB0pE-28" value="" style="endArrow=block;dashed=1;endFill=0;endSize=12;html=1;rounded=0;entryX=0.599;entryY=1.032;entryDx=0;entryDy=0;entryPerimeter=0;exitX=0.5;exitY=0;exitDx=0;exitDy=0;" parent="1" source="9_RSqaM09te3557k8NnD-30" target="YtY4lrtHLSIbA0cFB0pE-23" edge="1">
          <mxGeometry width="160" relative="1" as="geometry">
            <mxPoint x="30" y="630" as="sourcePoint" />
            <mxPoint x="190" y="630" as="targetPoint" />
          </mxGeometry>
        </mxCell>
        <mxCell id="YtY4lrtHLSIbA0cFB0pE-29" value="" style="endArrow=block;dashed=1;endFill=0;endSize=12;html=1;rounded=0;entryX=0.599;entryY=1.032;entryDx=0;entryDy=0;entryPerimeter=0;exitX=0.5;exitY=0;exitDx=0;exitDy=0;" parent="1" edge="1">
          <mxGeometry width="160" relative="1" as="geometry">
            <mxPoint x="301" y="391" as="sourcePoint" />
            <mxPoint x="300" y="342" as="targetPoint" />
          </mxGeometry>
        </mxCell>
        <mxCell id="YtY4lrtHLSIbA0cFB0pE-30" style="edgeStyle=orthogonalEdgeStyle;rounded=0;orthogonalLoop=1;jettySize=auto;html=1;exitX=0.5;exitY=1;exitDx=0;exitDy=0;" parent="1" source="9_RSqaM09te3557k8NnD-40" target="9_RSqaM09te3557k8NnD-40" edge="1">
          <mxGeometry relative="1" as="geometry" />
        </mxCell>
        <mxCell id="YtY4lrtHLSIbA0cFB0pE-32" value="" style="endArrow=none;html=1;rounded=0;exitX=0;exitY=0.5;exitDx=0;exitDy=0;entryX=0.14;entryY=1.135;entryDx=0;entryDy=0;entryPerimeter=0;" parent="1" source="9_RSqaM09te3557k8NnD-36" target="YtY4lrtHLSIbA0cFB0pE-23" edge="1">
          <mxGeometry width="50" height="50" relative="1" as="geometry">
            <mxPoint x="30" y="640" as="sourcePoint" />
            <mxPoint x="30" y="340" as="targetPoint" />
            <Array as="points">
              <mxPoint x="40" y="625" />
            </Array>
          </mxGeometry>
        </mxCell>
        <mxCell id="YtY4lrtHLSIbA0cFB0pE-33" value="" style="endArrow=none;html=1;rounded=0;entryX=0.095;entryY=0.998;entryDx=0;entryDy=0;entryPerimeter=0;exitX=0;exitY=0.5;exitDx=0;exitDy=0;" parent="1" source="9_RSqaM09te3557k8NnD-35" target="9_RSqaM09te3557k8NnD-19" edge="1">
          <mxGeometry width="50" height="50" relative="1" as="geometry">
            <mxPoint x="180" y="550" as="sourcePoint" />
            <mxPoint x="230" y="500" as="targetPoint" />
            <Array as="points">
              <mxPoint x="230" y="600" />
            </Array>
          </mxGeometry>
        </mxCell>
        <mxCell id="YtY4lrtHLSIbA0cFB0pE-34" value="" style="endArrow=block;dashed=1;endFill=0;endSize=12;html=1;rounded=0;entryX=0.599;entryY=1.032;entryDx=0;entryDy=0;entryPerimeter=0;exitX=0.5;exitY=0;exitDx=0;exitDy=0;" parent="1" edge="1">
          <mxGeometry width="160" relative="1" as="geometry">
            <mxPoint x="465.5" y="393" as="sourcePoint" />
            <mxPoint x="464.5" y="344" as="targetPoint" />
          </mxGeometry>
        </mxCell>
        <mxCell id="YtY4lrtHLSIbA0cFB0pE-35" value="" style="endArrow=block;dashed=1;endFill=0;endSize=12;html=1;rounded=0;exitX=0.5;exitY=0;exitDx=0;exitDy=0;" parent="1" edge="1">
          <mxGeometry width="160" relative="1" as="geometry">
            <mxPoint x="695.5" y="394" as="sourcePoint" />
            <mxPoint x="695" y="345" as="targetPoint" />
          </mxGeometry>
        </mxCell>
        <mxCell id="YtY4lrtHLSIbA0cFB0pE-36" value="" style="endArrow=none;html=1;rounded=0;entryX=0.9;entryY=1.066;entryDx=0;entryDy=0;entryPerimeter=0;exitX=1;exitY=0.5;exitDx=0;exitDy=0;" parent="1" source="9_RSqaM09te3557k8NnD-35" target="9_RSqaM09te3557k8NnD-27" edge="1">
          <mxGeometry width="50" height="50" relative="1" as="geometry">
            <mxPoint x="520" y="540" as="sourcePoint" />
            <mxPoint x="570" y="490" as="targetPoint" />
            <Array as="points">
              <mxPoint x="536" y="599" />
            </Array>
          </mxGeometry>
        </mxCell>
        <mxCell id="YtY4lrtHLSIbA0cFB0pE-37" value="" style="endArrow=none;html=1;rounded=0;exitX=1;exitY=0.5;exitDx=0;exitDy=0;" parent="1" source="9_RSqaM09te3557k8NnD-36" edge="1">
          <mxGeometry width="50" height="50" relative="1" as="geometry">
            <mxPoint x="580" y="394" as="sourcePoint" />
            <mxPoint x="630" y="344" as="targetPoint" />
            <Array as="points">
              <mxPoint x="630" y="625" />
            </Array>
          </mxGeometry>
        </mxCell>
        <mxCell id="YtY4lrtHLSIbA0cFB0pE-38" value="" style="endArrow=block;dashed=1;endFill=0;endSize=12;html=1;rounded=0;entryX=1;entryY=0.5;entryDx=0;entryDy=0;exitX=0;exitY=0.5;exitDx=0;exitDy=0;" parent="1" source="9_RSqaM09te3557k8NnD-41" target="9_RSqaM09te3557k8NnD-39" edge="1">
          <mxGeometry width="160" relative="1" as="geometry">
            <mxPoint x="561" y="739" as="sourcePoint" />
            <mxPoint x="560" y="690" as="targetPoint" />
          </mxGeometry>
        </mxCell>
        <mxCell id="YtY4lrtHLSIbA0cFB0pE-40" value="" style="endArrow=none;html=1;rounded=0;entryX=1;entryY=0.5;entryDx=0;entryDy=0;exitX=0.11;exitY=1.131;exitDx=0;exitDy=0;exitPerimeter=0;" parent="1" source="9_RSqaM09te3557k8NnD-28" target="9_RSqaM09te3557k8NnD-28" edge="1">
          <mxGeometry width="50" height="50" relative="1" as="geometry">
            <mxPoint y="180" as="sourcePoint" />
            <mxPoint x="570" y="320" as="targetPoint" />
            <Array as="points">
              <mxPoint x="10" y="180" />
              <mxPoint x="800" y="180" />
              <mxPoint x="800" y="20" />
            </Array>
          </mxGeometry>
        </mxCell>
        <mxCell id="YtY4lrtHLSIbA0cFB0pE-41" value="" style="endArrow=none;html=1;rounded=0;exitX=1;exitY=0.5;exitDx=0;exitDy=0;entryX=0.11;entryY=0.994;entryDx=0;entryDy=0;entryPerimeter=0;" parent="1" source="9_RSqaM09te3557k8NnD-29" target="9_RSqaM09te3557k8NnD-29" edge="1">
          <mxGeometry width="50" height="50" relative="1" as="geometry">
            <mxPoint x="100" y="210" as="sourcePoint" />
            <mxPoint y="480" as="targetPoint" />
            <Array as="points">
              <mxPoint x="800" y="205" />
              <mxPoint x="800" y="490" />
              <mxPoint x="10" y="490" />
            </Array>
          </mxGeometry>
        </mxCell>
        <mxCell id="YtY4lrtHLSIbA0cFB0pE-42" value="" style="endArrow=none;html=1;rounded=0;exitX=1;exitY=0.5;exitDx=0;exitDy=0;entryX=0;entryY=1;entryDx=0;entryDy=0;" parent="1" source="9_RSqaM09te3557k8NnD-33" target="9_RSqaM09te3557k8NnD-33" edge="1">
          <mxGeometry width="50" height="50" relative="1" as="geometry">
            <mxPoint x="520" y="370" as="sourcePoint" />
            <mxPoint y="770" as="targetPoint" />
            <Array as="points">
              <mxPoint x="800" y="530" />
              <mxPoint x="800" y="770" />
              <mxPoint x="10" y="770" />
            </Array>
          </mxGeometry>
        </mxCell>
        <mxCell id="YtY4lrtHLSIbA0cFB0pE-43" value="" style="endArrow=none;html=1;rounded=0;exitX=1.002;exitY=0.143;exitDx=0;exitDy=0;exitPerimeter=0;entryX=0;entryY=0.5;entryDx=0;entryDy=0;" parent="1" source="9_RSqaM09te3557k8NnD-42" target="9_RSqaM09te3557k8NnD-38" edge="1">
          <mxGeometry width="50" height="50" relative="1" as="geometry">
            <mxPoint x="520" y="700" as="sourcePoint" />
            <mxPoint x="570" y="650" as="targetPoint" />
          </mxGeometry>
        </mxCell>
        <mxCell id="YtY4lrtHLSIbA0cFB0pE-46" value="" style="rounded=0;whiteSpace=wrap;html=1;" parent="1" vertex="1">
          <mxGeometry x="790" y="80" width="30" height="10" as="geometry" />
        </mxCell>
        <mxCell id="YtY4lrtHLSIbA0cFB0pE-48" value="" style="rounded=0;whiteSpace=wrap;html=1;" parent="1" vertex="1">
          <mxGeometry x="790" y="100" width="30" height="10" as="geometry" />
        </mxCell>
        <mxCell id="YtY4lrtHLSIbA0cFB0pE-49" value="" style="rounded=0;whiteSpace=wrap;html=1;" parent="1" vertex="1">
          <mxGeometry x="790" y="270" width="30" height="10" as="geometry" />
        </mxCell>
        <mxCell id="YtY4lrtHLSIbA0cFB0pE-50" value="" style="rounded=0;whiteSpace=wrap;html=1;" parent="1" vertex="1">
          <mxGeometry x="790" y="287" width="30" height="10" as="geometry" />
        </mxCell>
        <mxCell id="YtY4lrtHLSIbA0cFB0pE-51" value="" style="rounded=0;whiteSpace=wrap;html=1;" parent="1" vertex="1">
          <mxGeometry x="790" y="590" width="30" height="10" as="geometry" />
        </mxCell>
        <mxCell id="YtY4lrtHLSIbA0cFB0pE-54" value="" style="rounded=0;whiteSpace=wrap;html=1;" parent="1" vertex="1">
          <mxGeometry x="790" y="610" width="30" height="10" as="geometry" />
        </mxCell>
        <mxCell id="9_RSqaM09te3557k8NnD-16" value="RegisteredClient" style="swimlane;fontStyle=0;childLayout=stackLayout;horizontal=1;startSize=26;fillColor=#99CCFF;horizontalStack=0;resizeParent=1;resizeParentMax=0;resizeLast=0;collapsible=1;marginBottom=0;whiteSpace=wrap;html=1;" parent="1" vertex="1">
          <mxGeometry x="220" y="240" width="140" height="104" as="geometry" />
        </mxCell>
        <mxCell id="9_RSqaM09te3557k8NnD-17" value="Id:int" style="text;strokeColor=none;fillColor=none;align=left;verticalAlign=top;spacingLeft=4;spacingRight=4;overflow=hidden;rotatable=0;points=[[0,0.5],[1,0.5]];portConstraint=eastwest;whiteSpace=wrap;html=1;" parent="9_RSqaM09te3557k8NnD-16" vertex="1">
          <mxGeometry y="26" width="140" height="26" as="geometry" />
        </mxCell>
        <mxCell id="9_RSqaM09te3557k8NnD-18" value="deliveryAdress" style="text;strokeColor=none;fillColor=none;align=left;verticalAlign=top;spacingLeft=4;spacingRight=4;overflow=hidden;rotatable=0;points=[[0,0.5],[1,0.5]];portConstraint=eastwest;whiteSpace=wrap;html=1;" parent="9_RSqaM09te3557k8NnD-16" vertex="1">
          <mxGeometry y="52" width="140" height="26" as="geometry" />
        </mxCell>
        <mxCell id="9_RSqaM09te3557k8NnD-19" value="e-mail" style="text;strokeColor=none;fillColor=none;align=left;verticalAlign=top;spacingLeft=4;spacingRight=4;overflow=hidden;rotatable=0;points=[[0,0.5],[1,0.5]];portConstraint=eastwest;whiteSpace=wrap;html=1;" parent="9_RSqaM09te3557k8NnD-16" vertex="1">
          <mxGeometry y="78" width="140" height="26" as="geometry" />
        </mxCell>
        <mxCell id="YtY4lrtHLSIbA0cFB0pE-55" value="&lt;b&gt;&lt;font style=&quot;font-size: 18px;&quot;&gt;Заказ пиццы UML диаграмма&lt;/font&gt;&lt;/b&gt;" style="text;html=1;strokeColor=none;fillColor=none;align=center;verticalAlign=middle;whiteSpace=wrap;rounded=0;" parent="1" vertex="1">
          <mxGeometry x="190" y="790" width="350" height="30" as="geometry" />
        </mxCell>
      </root>
    </mxGraphModel>
  </diagram>
</mxfile>
